<?xml version="1.0" encoding="utf-8"?><svg xmlns="http://www.w3.org/2000/svg" xmlns:xlink="http://www.w3.org/1999/xlink"><symbol viewBox="0 0 477.2 477.2" id="back" xmlns="http://www.w3.org/2000/svg"><path d="M145.2 238.6L360.7 23.1c5.3-5.3 5.3-13.8 0-19.1s-13.8-5.3-19.1 0L116.5 229.1c-5.3 5.3-5.3 13.8 0 19.1l225.1 225c2.6 2.6 6.1 4 9.5 4s6.9-1.3 9.5-4c5.3-5.3 5.3-13.8 0-19.1L145.2 238.6z"/></symbol><symbol viewBox="0 0 448.8 448.8" id="check" xmlns="http://www.w3.org/2000/svg"><path d="M142.8 323.85L35.7 216.75 0 252.45l142.8 142.8 306-306-35.7-35.7z"/></symbol><symbol viewBox="0 0 56.42 60" id="clock" xmlns="http://www.w3.org/2000/svg"><g data-name="Слой 2"><g data-name="Capa 1"><path d="M29.84 38a3.56 3.56 0 0 0 2.61-1.46l9.36-12.94a1 1 0 0 0-1.4-1.4l-12.94 9.36a3.53 3.53 0 0 0-1.47 2.6A3.55 3.55 0 0 0 29.56 38zM28 34.31a1.54 1.54 0 0 1 .63-1.14l7.9-5.71-5.71 7.89a1.52 1.52 0 0 1-1.15.64A1.55 1.55 0 0 1 28 34.31z"/><path d="M52.24 19.56v-.11a27.14 27.14 0 0 0-3.57-4.81l2.15-2.15 1.41 1.42 4.25-4.24-4.31-4.25-4.24 4.25 1.42 1.41-2.15 2.15a27.14 27.14 0 0 0-4.81-3.57h-.07A26.71 26.71 0 0 0 32 6.19V5h1.5a2.5 2.5 0 0 0 0-5h-9a2.5 2.5 0 0 0 0 5H26v1.16a27 27 0 0 0-3.22.53 1 1 0 0 0 .44 2A26.48 26.48 0 0 1 26 8.16l1.08-.08L28 8v2a1 1 0 0 0 2 0V8a24.67 24.67 0 0 1 10.46 2.85l-1 1.7a1 1 0 0 0 .38 1.45 1 1 0 0 0 1.36-.37l1-1.7a25.27 25.27 0 0 1 7.8 7.72l-1.71 1a1 1 0 0 0 1 1.74l1.7-1A24.76 24.76 0 0 1 53.81 32h-2a1 1 0 0 0 0 2h2A24.76 24.76 0 0 1 51 44.62l-1.7-1a1 1 0 0 0-1.37.37 1 1 0 0 0 .37 1.36l1.7 1a25.27 25.27 0 0 1-7.77 7.77l-1-1.7a1 1 0 0 0-1.36-.37 1 1 0 0 0-.37 1.37l1 1.7A24.67 24.67 0 0 1 30 58v-2a1 1 0 0 0-2 0v2a25.65 25.65 0 0 1-4.77-.62 1 1 0 1 0-.45 2 27 27 0 0 0 6.06.69H29a26.8 26.8 0 0 0 13.22-3.57h.1a27.28 27.28 0 0 0 9.77-9.76l.06-.08v-.06a26.89 26.89 0 0 0 0-26.88zm-.07-11.31l1.42 1.42-1.42 1.41-1.41-1.42zM28 6V3h-3.5a.5.5 0 0 1 0-1h9a.5.5 0 0 1 0 1H30v3h-2zm-8 8h-5a1 1 0 0 0 0 2h5a1 1 0 0 0 0-2zm0 7H10a1 1 0 0 0 0 2h10a1 1 0 0 0 0-2zm0 7H5a1 1 0 0 0 0 2h15a1 1 0 0 0 0-2zm0 7H1a1 1 0 0 0 0 2h19a1 1 0 0 0 0-2zm0 7H7a1 1 0 0 0 0 2h13a1 1 0 0 0 0-2zm0 7h-7a1 1 0 0 0 0 2h7a1 1 0 0 0 0-2z"/></g></g></symbol><symbol viewBox="0 0 286.054 286.054" id="exclamation-mark" xmlns="http://www.w3.org/2000/svg"><path d="M143.027 0C64.04 0 0 64.04 0 143.027c0 78.996 64.04 143.027 143.027 143.027 78.996 0 143.027-64.022 143.027-143.027C286.054 64.04 222.022 0 143.027 0zm0 259.236c-64.183 0-116.209-52.026-116.209-116.209S78.844 26.818 143.027 26.818s116.209 52.026 116.209 116.209-52.026 116.209-116.209 116.209zm.009-196.51c-10.244 0-17.995 5.346-17.995 13.981v79.201c0 8.644 7.75 13.972 17.995 13.972 9.994 0 17.995-5.551 17.995-13.972V76.707c-.001-8.43-8.001-13.981-17.995-13.981zm0 124.997c-9.842 0-17.852 8.01-17.852 17.86 0 9.833 8.01 17.843 17.852 17.843s17.843-8.01 17.843-17.843c-.001-9.851-8.001-17.86-17.843-17.86z"/></symbol><symbol viewBox="0 0 551.03 551.03" id="insta" xmlns="http://www.w3.org/2000/svg"><defs><style>.ecls-1{fill:url(#eБезымянный_градиент_3)}</style><linearGradient id="eБезымянный_градиент_3" x1="275.52" y1="787.43" x2="275.52" y2="242.28" gradientTransform="translate(0 -238)" gradientUnits="userSpaceOnUse"><stop offset="0" stop-color="#e09b3d"/><stop offset=".3" stop-color="#c74c4d"/><stop offset=".6" stop-color="#c21975"/><stop offset="1" stop-color="#7024c4"/></linearGradient><linearGradient id="eБезымянный_градиент_3-3" x1="418.31" y1="787.43" x2="418.31" y2="242.28" xlink:href="#eБезымянный_градиент_3"/></defs><g id="eСлой_2" data-name="Слой 2"><g id="eLayer_1" data-name="Layer 1"><path class="ecls-1" d="M386.88 0H164.16C73.64 0 0 73.64 0 164.16v222.72C0 477.39 73.64 551 164.16 551h222.72C477.39 551 551 477.39 551 386.88V164.16C551 73.64 477.39 0 386.88 0zM495.6 386.88A108.73 108.73 0 0 1 386.88 495.6H164.16A108.73 108.73 0 0 1 55.43 386.88V164.16A108.73 108.73 0 0 1 164.16 55.43h222.72A108.73 108.73 0 0 1 495.6 164.16v222.72z"/><path class="ecls-1" d="M275.52 133C196.93 133 133 196.93 133 275.52S196.93 418 275.52 418 418 354.1 418 275.52 354.1 133 275.52 133zm0 229.6a87.09 87.09 0 1 1 87.08-87.08 87.09 87.09 0 0 1-87.08 87.08z"/><circle cx="418.31" cy="134.07" r="34.15"/></g></g></symbol><symbol viewBox="0 0 232.153 232.153" id="play" xmlns="http://www.w3.org/2000/svg"><path d="M203.791 99.628L49.307 2.294C44.74-.425 39.069.028 34.786.028 17.654.028 17.73 13.255 17.73 16.606v198.94c0 2.833-.075 16.579 17.056 16.579 4.283 0 9.955.451 14.521-2.267l154.483-97.333c12.68-7.545 10.489-16.449 10.489-16.449s2.192-8.904-10.488-16.448z" fill-rule="evenodd" clip-rule="evenodd"/></symbol><symbol viewBox="0 0 512 512" id="ruble" xmlns="http://www.w3.org/2000/svg"><path d="M288.134 128.533H207.8c-8.284 0-15 6.716-15 15v113.533h-17.133c-8.284 0-15 6.716-15 15s6.716 15 15 15H192.8v34.267h-17.133c-8.284 0-15 6.716-15 15s6.716 15 15 15H192.8v33.2c0 8.284 6.716 15 15 15s15-6.716 15-15v-33.2h65.334c8.284 0 15-6.716 15-15s-6.716-15-15-15H222.8v-34.267h65.334c43.708 0 79.267-35.559 79.267-79.267-.001-44.788-36.484-79.266-79.267-79.266zm0 128.533H222.8v-98.533h65.334c27.002 0 49.267 21.78 49.267 49.267-.001 27.166-22.101 49.266-49.267 49.266z"/><path d="M256 0C114.841 0 0 114.841 0 256s114.841 256 256 256 256-114.841 256-256S397.159 0 256 0zm0 482C131.383 482 30 380.617 30 256S131.383 30 256 30s226 101.383 226 226-101.383 226-226 226z"/></symbol><symbol viewBox="0 0 480.55 480.56" id="tel-footer" xmlns="http://www.w3.org/2000/svg"><g data-name="Слой 2"><g data-name="Capa 1"><path d="M365.35 317.9c-15.7-15.5-35.3-15.5-50.9 0-11.9 11.8-23.8 23.6-35.5 35.6-3.2 3.3-5.9 4-9.8 1.8-7.7-4.2-15.9-7.6-23.3-12.2-34.5-21.7-63.4-49.6-89-81-12.7-15.6-24-32.3-31.9-51.1-1.6-3.8-1.3-6.3 1.8-9.4 11.9-11.5 23.5-23.3 35.2-35.1 16.3-16.4 16.3-35.6-.1-52.1-9.3-9.4-18.6-18.6-27.9-28-9.6-9.6-19.1-19.3-28.8-28.8-15.7-15.3-35.3-15.3-50.9.1-12 11.8-23.5 23.9-35.7 35.5-11.3 10.7-17 23.8-18.2 39.1-1.9 24.9 4.2 48.4 12.8 71.3 17.6 47.4 44.4 89.5 76.9 128.1 43.9 52.2 96.3 93.5 157.6 123.3 27.6 13.4 56.2 23.7 87.3 25.4 21.4 1.2 40-4.2 54.9-20.9 10.2-11.4 21.7-21.8 32.5-32.7 16-16.2 16.1-35.8.2-51.8q-28.5-28.65-57.2-57.1zm-19.1-79.7l36.9-6.3A165.63 165.63 0 0 0 243.05 96l-5.2 37.1a128 128 0 0 1 108.4 105.1z"/><path d="M404 77.8A272.09 272.09 0 0 0 248 0l-5.2 37.1a237.42 237.42 0 0 1 200.9 194.7l36.9-6.3A274.08 274.08 0 0 0 404 77.8z"/></g></g></symbol><symbol viewBox="0 0 480.56 480.56" id="telephone" xmlns="http://www.w3.org/2000/svg"><path d="M365.354 317.9c-15.7-15.5-35.3-15.5-50.9 0-11.9 11.8-23.8 23.6-35.5 35.6-3.2 3.3-5.9 4-9.8 1.8-7.7-4.2-15.9-7.6-23.3-12.2-34.5-21.7-63.4-49.6-89-81-12.7-15.6-24-32.3-31.9-51.1-1.6-3.8-1.3-6.3 1.8-9.4 11.9-11.5 23.5-23.3 35.2-35.1 16.3-16.4 16.3-35.6-.1-52.1-9.3-9.4-18.6-18.6-27.9-28-9.6-9.6-19.1-19.3-28.8-28.8-15.7-15.3-35.3-15.3-50.9.1-12 11.8-23.5 23.9-35.7 35.5-11.3 10.7-17 23.8-18.2 39.1-1.9 24.9 4.2 48.4 12.8 71.3 17.6 47.4 44.4 89.5 76.9 128.1 43.9 52.2 96.3 93.5 157.6 123.3 27.6 13.4 56.2 23.7 87.3 25.4 21.4 1.2 40-4.2 54.9-20.9 10.2-11.4 21.7-21.8 32.5-32.7 16-16.2 16.1-35.8.2-51.8-19-19.1-38.1-38.1-57.2-57.1zm-19.1-79.7l36.9-6.3c-5.8-33.9-21.8-64.6-46.1-89-25.7-25.7-58.2-41.9-94-46.9l-5.2 37.1c27.7 3.9 52.9 16.4 72.8 36.3 18.8 18.8 31.1 42.6 35.6 68.8zm57.7-160.4c-42.6-42.6-96.5-69.5-156-77.8l-5.2 37.1c51.4 7.2 98 30.5 134.8 67.2 34.9 34.9 57.8 79 66.1 127.5l36.9-6.3c-9.7-56.2-36.2-107.2-76.6-147.7z"/></symbol><symbol viewBox="0 0 532.34 303.73" id="vk" xmlns="http://www.w3.org/2000/svg"><g data-name="Слой 2"><path d="M472 127q11.36-14.67 18-23.56 48-63.77 41.59-81.5l-1.67-2.77q-1.65-2.51-8.59-4.58t-17.73-.69l-79.83.56a22.85 22.85 0 0 0-5.54.13 15.37 15.37 0 0 0-3.61.83l-1.38.69-1.11.83a12.39 12.39 0 0 0-3 2.92 19 19 0 0 0-2.78 4.85 450.83 450.83 0 0 1-29.65 62.36q-10.26 17.19-18.85 29.8t-14.45 18.56a98.59 98.59 0 0 1-10.53 9.57c-3.15 2.42-5.55 3.43-7.2 3.06s-3.24-.74-4.72-1.12a18.13 18.13 0 0 1-6.23-6.78 30.4 30.4 0 0 1-3.19-10.81q-.82-6.51-1-11.23t.14-13.31q.29-8.58.28-11.64 0-10.51.41-22.86t.7-19.54q.27-7.2.27-15.25a63.68 63.68 0 0 0-1-12.61 44.7 44.7 0 0 0-2.85-8.91 14.83 14.83 0 0 0-5.69-6.64 31.69 31.69 0 0 0-9.28-3.75Q278.81.31 256.09 0q-51.55-.5-66.24 6.69A37.53 37.53 0 0 0 179.32 15q-5 6.1-1.39 6.65 16.63 2.49 23.56 11.92l1.67 3.32q1.93 3.62 3.88 12.76a129.15 129.15 0 0 1 2.49 20.23 214 214 0 0 1 0 34.65Q208.15 119 206.9 127a44.79 44.79 0 0 1-3.74 13 52.73 52.73 0 0 1-3.33 6.11 4.71 4.71 0 0 1-1.38 1.38 20.79 20.79 0 0 1-7.48 1.38q-3.89 0-9.43-3.88A65.73 65.73 0 0 1 170 134.32a142.3 142.3 0 0 1-13.45-19q-7.47-12.18-15.52-28.82l-4.43-8q-4.15-7.75-11.36-22.58T112.53 27.2a18.37 18.37 0 0 0-6.65-8.87l-1.39-.83a18.3 18.3 0 0 0-4.43-2.35 29.34 29.34 0 0 0-6.38-1.81l-75.94.55q-11.64 0-15.8 5.28L.83 20.83A9 9 0 0 0 0 25.26a22.22 22.22 0 0 0 1.66 7.48q16.63 39.09 36.17 75.39t34 58.49q14.42 22.19 29.38 41.85T121 233.68q4.85 5.56 7.62 8.32l6.92 6.66q6.65 6.65 19.55 15.94a326.92 326.92 0 0 0 28.55 18.28 154.74 154.74 0 0 0 36.44 14.7 125.87 125.87 0 0 0 40.47 4.57h31.87q9.7-.82 14.69-6.1l1.1-1.38a18.41 18.41 0 0 0 2.08-5.12 28.12 28.12 0 0 0 1-7.62 90.81 90.81 0 0 1 1.8-21.48q2.07-9.57 4.71-14.42a35.45 35.45 0 0 1 6-8.18 23.74 23.74 0 0 1 4.71-4 22.82 22.82 0 0 1 2.22-1q6.64-2.21 15.66 4.3a92.24 92.24 0 0 1 16.91 16.08q7.89 9.56 19 21.48t19.4 17.73l5.55 3.34a67.66 67.66 0 0 0 14.41 6.09q8.87 2.78 15.52 1.39l71-1.12q10.53 0 16.35-3.46c3.88-2.3 6.19-4.85 6.93-7.62a21.61 21.61 0 0 0 .14-9.42 34.74 34.74 0 0 0-1.94-7.34 37.82 37.82 0 0 0-1.81-3.46q-13.86-24.95-52.94-61.26l-.55-.55-.28-.28-.27-.27h-.28q-17.87-16.9-22.53-22.72-8.59-11.07-3.88-22.44Q450.37 154.7 472 127z" data-name="Capa 1"/></g></symbol></svg>