<svg xmlns="http://www.w3.org/2000/svg" viewBox="0 0 612 611.66"><title>clock2</title><g id="Слой_2" data-name="Слой 2"><g id="Capa_1" data-name="Capa 1"><path d="M587.57,186.71c-32.26-75.22-87.09-129.93-163-162.28A300.75,300.75,0,0,0,305.5,0,297.64,297.64,0,0,0,186.71,24.43C111.49,56.69,56.42,111.37,24.09,186.71A297.76,297.76,0,0,0,0,305.5C0,347,7.89,386.87,24.09,424.62,56.42,500,111.49,555,186.71,587.24A297.67,297.67,0,0,0,305.5,611.66a300.91,300.91,0,0,0,119.12-24.42c75.85-32.35,130.68-87.4,163-162.62a301.82,301.82,0,0,0,0-237.91Zm-48.85,254c-24,41.2-56.93,73.88-98.37,98-41.2,24-86.33,36.14-134.85,36.14a259.14,259.14,0,0,1-104.4-21.42c-33.12-14.38-61.73-33.29-85.66-57.21s-43-52.81-57.21-86S37.15,342,37.15,305.5Q37.15,232.72,73,171c24-41.23,56.88-73.95,98-98S257,36.81,305.5,36.81,399.15,48.93,440.34,73a269.22,269.22,0,0,1,98.38,98q36.13,61.72,36.13,134.51C574.85,354,562.89,399.23,538.72,440.68Z"/><path d="M324.91,302.82V129.49c0-10.37-9-18.74-19.41-18.74-9.7,0-18.41,8.37-18.41,18.74v176a15,15,0,0,1,.67,2.67q-1,9,5,15.07l100.06,100c6.69,6.7,19.07,6.7,25.76,0,7.69-7.69,7.19-18.86,0-26.1Z"/></g></g></svg>