<svg xmlns="http://www.w3.org/2000/svg" viewBox="0 0 56.42 60"><title>clock</title><g id="Слой_2" data-name="Слой 2"><g id="Capa_1" data-name="Capa 1"><path d="M29.84,38a3.56,3.56,0,0,0,2.61-1.46l9.36-12.94a1,1,0,0,0-1.4-1.4L27.47,31.56A3.53,3.53,0,0,0,26,34.16,3.55,3.55,0,0,0,29.56,38ZM28,34.31a1.54,1.54,0,0,1,.63-1.14l7.9-5.71-5.71,7.89a1.52,1.52,0,0,1-1.15.64A1.55,1.55,0,0,1,28,34.31Z"/><path d="M52.24,19.56s0,0,0-.06l0-.05a27.14,27.14,0,0,0-3.57-4.81l2.15-2.15,1.41,1.42,4.25-4.24L52.17,5.42,47.93,9.67l1.42,1.41L47.2,13.23a27.14,27.14,0,0,0-4.81-3.57l0,0-.07,0A26.71,26.71,0,0,0,32,6.19V5h1.5a2.5,2.5,0,0,0,0-5h-9a2.5,2.5,0,0,0,0,5H26V6.16a27,27,0,0,0-3.22.53,1,1,0,0,0,.44,2A26.48,26.48,0,0,1,26,8.16l1.08-.08L28,8v2a1,1,0,0,0,2,0V8a24.67,24.67,0,0,1,10.46,2.85l-1,1.7A1,1,0,0,0,39.84,14a1,1,0,0,0,1.36-.37l1-1.7A25.27,25.27,0,0,1,50,19.65l-1.71,1a1,1,0,0,0,1,1.74l1.7-1A24.76,24.76,0,0,1,53.81,32h-2a1,1,0,0,0,0,2h2A24.76,24.76,0,0,1,51,44.62l-1.7-1a1,1,0,0,0-1.37.37,1,1,0,0,0,.37,1.36l1.7,1a25.27,25.27,0,0,1-7.77,7.77l-1-1.7a1,1,0,0,0-1.36-.37,1,1,0,0,0-.37,1.37l1,1.7A24.67,24.67,0,0,1,30,58V56a1,1,0,0,0-2,0v2a25.65,25.65,0,0,1-4.77-.62,1,1,0,1,0-.45,2,27,27,0,0,0,6.06.69H29a26.8,26.8,0,0,0,13.22-3.57l.1,0,0,0a27.28,27.28,0,0,0,9.77-9.76l.06-.08s0,0,0-.06a26.89,26.89,0,0,0,0-26.88ZM52.17,8.25l1.42,1.42-1.42,1.41L50.76,9.66ZM28,6V3H24.5a.5.5,0,0,1,0-1h9a.5.5,0,0,1,0,1H30V6L29,6H28Z"/><path d="M20,14H15a1,1,0,0,0,0,2h5a1,1,0,0,0,0-2Z"/><path d="M20,21H10a1,1,0,0,0,0,2H20a1,1,0,0,0,0-2Z"/><path d="M20,28H5a1,1,0,0,0,0,2H20a1,1,0,0,0,0-2Z"/><path d="M20,35H1a1,1,0,0,0,0,2H20a1,1,0,0,0,0-2Z"/><path d="M20,42H7a1,1,0,0,0,0,2H20a1,1,0,0,0,0-2Z"/><path d="M20,49H13a1,1,0,0,0,0,2h7a1,1,0,0,0,0-2Z"/></g></g></svg>