<svg xmlns="http://www.w3.org/2000/svg" viewBox="0 0 532.34 303.73"><title>vk</title><g id="Слой_2" data-name="Слой 2"><g id="Capa_1" data-name="Capa 1"><path d="M472,127q11.36-14.67,18-23.56Q538,39.67,531.59,21.94l-1.67-2.77q-1.65-2.51-8.59-4.58T503.6,13.9l-79.83.56a22.85,22.85,0,0,0-5.54.13,15.37,15.37,0,0,0-3.61.83l-1.38.69-1.11.83a12.39,12.39,0,0,0-3,2.92,19,19,0,0,0-2.78,4.85,450.83,450.83,0,0,1-29.65,62.36q-10.26,17.19-18.85,29.8T343.4,135.43A98.59,98.59,0,0,1,332.87,145c-3.15,2.42-5.55,3.43-7.2,3.06s-3.24-.74-4.72-1.12a18.13,18.13,0,0,1-6.23-6.78,30.4,30.4,0,0,1-3.19-10.81q-.82-6.51-1-11.23t.14-13.31q.29-8.58.28-11.64,0-10.51.41-22.86t.7-19.54q.27-7.2.27-15.25a63.68,63.68,0,0,0-1-12.61A44.7,44.7,0,0,0,308.48,14a14.83,14.83,0,0,0-5.69-6.64,31.69,31.69,0,0,0-9.28-3.75Q278.81.31,256.09,0,204.54-.5,189.85,6.69A37.53,37.53,0,0,0,179.32,15q-5,6.1-1.39,6.65,16.63,2.49,23.56,11.92l1.67,3.32q1.93,3.62,3.88,12.76a129.15,129.15,0,0,1,2.49,20.23,214,214,0,0,1,0,34.65Q208.15,119,206.9,127a44.79,44.79,0,0,1-3.74,13,52.73,52.73,0,0,1-3.33,6.11,4.71,4.71,0,0,1-1.38,1.38,20.79,20.79,0,0,1-7.48,1.38q-3.89,0-9.43-3.88A65.73,65.73,0,0,1,170,134.32a142.3,142.3,0,0,1-13.45-19q-7.47-12.18-15.52-28.82l-4.43-8q-4.15-7.75-11.36-22.58T112.53,27.2a18.37,18.37,0,0,0-6.65-8.87l-1.39-.83a18.3,18.3,0,0,0-4.43-2.35,29.34,29.34,0,0,0-6.38-1.81l-75.94.55q-11.64,0-15.8,5.28L.83,20.83A9,9,0,0,0,0,25.26a22.22,22.22,0,0,0,1.66,7.48q16.63,39.09,36.17,75.39t34,58.49q14.42,22.19,29.38,41.85T121,233.68q4.85,5.56,7.62,8.32l6.92,6.66q6.65,6.65,19.55,15.94a326.92,326.92,0,0,0,28.55,18.28,154.74,154.74,0,0,0,36.44,14.7,125.87,125.87,0,0,0,40.47,4.57h31.87q9.7-.82,14.69-6.1l1.1-1.38a18.41,18.41,0,0,0,2.08-5.12,28.12,28.12,0,0,0,1-7.62,90.81,90.81,0,0,1,1.8-21.48q2.07-9.57,4.71-14.42a35.45,35.45,0,0,1,6-8.18,23.74,23.74,0,0,1,4.71-4,22.82,22.82,0,0,1,2.22-1q6.64-2.21,15.66,4.3a92.24,92.24,0,0,1,16.91,16.08q7.89,9.56,19,21.48t19.4,17.73l5.55,3.34a67.66,67.66,0,0,0,14.41,6.09q8.87,2.78,15.52,1.39l71-1.12q10.53,0,16.35-3.46c3.88-2.3,6.19-4.85,6.93-7.62a21.61,21.61,0,0,0,.14-9.42,34.74,34.74,0,0,0-1.94-7.34,37.82,37.82,0,0,0-1.81-3.46q-13.86-24.95-52.94-61.26l-.55-.55-.28-.28-.27-.27h-.28Q455.66,191.58,451,185.76q-8.59-11.07-3.88-22.44Q450.37,154.7,472,127Z"/></g></g></svg>